<svg xmlns="http://www.w3.org/2000/svg" width="32.624" height="27.623" viewBox="0 0 32.624 27.623">
  <g id="up-arrow" transform="translate(31.624 1.163) rotate(90)">
    <g id="Group_725" data-name="Group 725" transform="translate(0)">
      <path id="Path_277" data-name="Path 277" d="M66.45,19.084,55.4,30.135a1.691,1.691,0,0,1-2.377,0L41.971,19.084a1.677,1.677,0,0,1,0-2.368l1-1a1.663,1.663,0,0,1,1.184-.488,1.7,1.7,0,0,1,1.2.488l6.461,6.447V1.676A1.654,1.654,0,0,1,53.464,0h1.419A1.717,1.717,0,0,1,56.6,1.676V22.232l6.5-6.52a1.66,1.66,0,0,1,2.351,0l1,1A1.676,1.676,0,0,1,66.45,19.084Z" transform="translate(-41.481)" stroke="#fff" stroke-width="2"/>
    </g>
  </g>
</svg>
