<svg xmlns="http://www.w3.org/2000/svg" width="33.163" height="29.278" viewBox="0 0 33.163 29.278">
  <g id="basket" transform="translate(0.25 0.32)">
    <path id="Path_127" data-name="Path 127" d="M325.3,308.639a.956.956,0,0,0,1.1-.787l.957-5.742a.957.957,0,1,0-1.888-.315l-.957,5.741A.957.957,0,0,0,325.3,308.639Z" transform="translate(-303.796 -283.772)" fill="#fff" stroke="#fff" stroke-width="0.5"/>
    <path id="Path_128" data-name="Path 128" d="M144.468,307.854a.957.957,0,0,0,1.888-.315L145.4,301.8a.957.957,0,1,0-1.888.315Z" transform="translate(-134.343 -283.773)" fill="#fff" stroke="#fff" stroke-width="0.5"/>
    <path id="Path_129" data-name="Path 129" d="M31.706,40.569H28.338l-7.368-9.21a.957.957,0,1,0-1.494,1.2l6.412,8.014H6.776l6.412-8.014a.957.957,0,1,0-1.494-1.2l-7.368,9.21H.957A.957.957,0,0,0,0,41.526v3.828a.957.957,0,0,0,.957.957H2.149l3.629,12.7a.957.957,0,0,0,.92.694H25.964a.957.957,0,0,0,.92-.694l3.629-12.7h1.192a.957.957,0,0,0,.957-.957V41.526A.957.957,0,0,0,31.706,40.569ZM25.243,57.794H7.42L4.139,46.311H28.523Zm5.506-13.4H1.914V42.483H30.749Z" transform="translate(0 -31)" fill="#fff" stroke="#fff" stroke-width="0.5"/>
    <path id="Path_130" data-name="Path 130" d="M241.957,308.655a.957.957,0,0,0,.957-.957v-5.742a.957.957,0,0,0-1.914,0V307.7A.957.957,0,0,0,241.957,308.655Z" transform="translate(-225.626 -283.775)" fill="#fff" stroke="#fff" stroke-width="0.5"/>
  </g>
</svg>
