<svg xmlns="http://www.w3.org/2000/svg" width="22.747" height="23.254" viewBox="0 0 22.747 23.254">
  <path id="filter" d="M21.272,0H1.431A.932.932,0,0,0,.6.506a.945.945,0,0,0,.073.984l7.269,10.24.008.01a2.077,2.077,0,0,1,.408,1.232V21.32a.928.928,0,0,0,.928.934.956.956,0,0,0,.366-.073l4.085-1.558a.885.885,0,0,0,.609-.873V12.972a2.077,2.077,0,0,1,.408-1.232l.008-.01,7.269-10.24A.944.944,0,0,0,22.1.506.932.932,0,0,0,21.272,0ZM13.842,11.07a3.216,3.216,0,0,0-.627,1.9v6.641L9.487,21.035V12.972a3.214,3.214,0,0,0-.627-1.9L1.8,1.13H20.9Zm0,0" transform="translate(0.022 0.5)" stroke="#000" stroke-width="1"/>
</svg>
