<svg xmlns="http://www.w3.org/2000/svg" width="34.181" height="34.185" viewBox="0 0 34.181 34.185"><path d="M33.763,14.869l0,0L19.815.922a3.147,3.147,0,0,0-4.451,0L1.427,14.859l-.014.014a3.146,3.146,0,0,0,2.094,5.362c.032,0,.065,0,.1,0H4.16V30.5a3.687,3.687,0,0,0,3.683,3.683H13.3a1,1,0,0,0,1-1V25.138a1.682,1.682,0,0,1,1.681-1.68H19.2a1.682,1.682,0,0,1,1.68,1.68v8.045a1,1,0,0,0,1,1h5.456A3.687,3.687,0,0,0,31.02,30.5V20.24h.515a3.148,3.148,0,0,0,2.227-5.371ZM32.344,17.9a1.137,1.137,0,0,1-.809.335H30.018a1,1,0,0,0-1,1V30.5a1.682,1.682,0,0,1-1.68,1.68H22.882V25.138A3.688,3.688,0,0,0,19.2,21.454H15.981A3.688,3.688,0,0,0,12.3,25.138v7.044H7.844a1.682,1.682,0,0,1-1.68-1.68V19.238a1,1,0,0,0-1-1H3.671l-.047,0a1.143,1.143,0,0,1-.788-1.952h0L16.781,2.338a1.143,1.143,0,0,1,1.618,0L32.34,16.279l.007.006A1.147,1.147,0,0,1,32.344,17.9Zm0,0" transform="translate(-0.499)"/></svg>