<svg xmlns="http://www.w3.org/2000/svg" xmlns:xlink="http://www.w3.org/1999/xlink" width="119" height="119" viewBox="0 0 119 119">
  <defs>
    <linearGradient id="linear-gradient" x1="0.3" y1="0.235" x2="1" y2="1.122" gradientUnits="objectBoundingBox">
      <stop offset="0" stop-color="#f2f2f2"/>
      <stop offset="1" stop-color="#ccc"/>
    </linearGradient>
  </defs>
  <g id="Group_1400" data-name="Group 1400" transform="translate(-463 -41)">
    <rect id="Rectangle_80" data-name="Rectangle 80" width="119" height="119" rx="5" transform="translate(463 41)" fill="url(#linear-gradient)"/>
    <g id="shirt_1_" data-name="shirt (1)" transform="translate(503.219 75.601)">
      <g id="Group_324" data-name="Group 324" transform="translate(0 0)">
        <path id="Path_113" data-name="Path 113" d="M77.795,19.988C73.1,15.372,72.8,6.094,73.04.961a.923.923,0,0,0-.923-.923H66.993a.923.923,0,0,0-.923,1.136,12.845,12.845,0,0,1,.48,3.5v.185c-5.373,3.776-10.626.923-12,0V4.682a12.84,12.84,0,0,1,.443-3.508A.923.923,0,0,0,54.069,0H48.945a.923.923,0,0,0-.923.923c.24,5.124-.055,14.411-4.764,18.99a.923.923,0,0,0-.268.739V43a2,2,0,0,0,2,2H76.105a2,2,0,0,0,1.966-2V20.653A.924.924,0,0,0,77.795,19.988ZM60.826,8.578a11.411,11.411,0,0,0,5.484-1.4c-.72,3.785-3.037,6.555-5.788,6.555s-5.1-2.825-5.8-6.656A13.9,13.9,0,0,0,60.826,8.578ZM76.225,43a.157.157,0,0,1-.157.157H44.975A.157.157,0,0,1,44.818,43V20.994C49.5,16.129,50.062,7.3,49.9,1.838h3.028a14.926,14.926,0,0,0-.268,2.834c.009,6.01,3.536,10.9,7.875,10.9S68.4,10.682,68.4,4.672a14.927,14.927,0,0,0-.268-2.834h3.028c-.166,5.465.406,14.291,5.078,19.156Z" transform="translate(-42.986 0)" stroke="#000" stroke-width="1"/>
      </g>
    </g>
  </g>
</svg>
