<svg xmlns="http://www.w3.org/2000/svg" xmlns:xlink="http://www.w3.org/1999/xlink" width="144.127" height="61.384" viewBox="0 0 144.127 61.384">
  <defs>
    <pattern id="pattern" preserveAspectRatio="none" width="100%" height="100%" viewBox="0 0 0 0">
      <image/>
    </pattern>
  </defs>
  <g id="Group_4" data-name="Group 4" transform="translate(-530.299 -158.426)">
    <g id="Group_3_copy" data-name="Group 3 copy" transform="translate(618.173 158.426)">
      <g id="Group_3_copy-2" data-name="Group 3 copy" transform="translate(0)">
        <rect id="Layer_1" data-name="Layer 1" fill="url(#pattern)"/>
        <g id="Group_3_copy-3" data-name="Group 3 copy" transform="translate(0.007 0.02)">
          <path id="Shape_2" data-name="Shape 2" d="M20.995,95.817s.2-2.649-.161-3.01c0,0-.843-1.485-.722-6.5,0,0,.522-7.867.6-8.629,0,0,.1-.477.4-1.565a25.8,25.8,0,0,0,.361-3.853s-.763-3.05-2.649-4.174a9.6,9.6,0,0,0-5.017,0A26.383,26.383,0,0,0,9.074,70.29s-1.284,1.4-1.2,2.288A2.252,2.252,0,0,1,7.027,74.1s-1.766,2.368-3.09,1.124c0,0-.161-.3.4-.141,0,0,.6.321,1.846-1.084a18.342,18.342,0,0,0,1.144-2.89,8.012,8.012,0,0,1-3.07.361A3.815,3.815,0,0,1,1.93,70.391,8.223,8.223,0,0,0,.1,68.906s-.241-.482.3-.381A11.351,11.351,0,0,1,2.713,70.17a4.259,4.259,0,0,0,3.773.161,5.855,5.855,0,0,0,1.726-.883S10.5,68.023,11.442,67.6c0,0,.542-.221.1-.421a1.388,1.388,0,0,1-1.064-.281A16.622,16.622,0,0,1,7.85,65.534S5.6,63.547,5.723,62.624a3.535,3.535,0,0,1-.763-1.746s-.542-1.766-.622-2.127a1.684,1.684,0,0,0-1.044-1.1s-.181-.522.682-.361a3,3,0,0,1,1.1,1.184S6.225,61.4,6.405,62.1c0,0,.281.482.381-.06A4.716,4.716,0,0,1,7.348,60.5a5.5,5.5,0,0,0,.682-1.044,3.287,3.287,0,0,0-.02-.983s.3-.221.442.241a1.208,1.208,0,0,1-.14,1.2s.1.963-.482,1.3a2.774,2.774,0,0,0,1.706,3.793,4.674,4.674,0,0,0,2.308,1.023,10.886,10.886,0,0,0,2.228.241s2.509-.221,3.271-.181a6.983,6.983,0,0,1,2.187.321,6.479,6.479,0,0,0-1.324-2.468,22.441,22.441,0,0,0-2.127-1.987,8.532,8.532,0,0,1-2.067-1.244,24.358,24.358,0,0,1-1.786-1.786,5.147,5.147,0,0,1-1.4-3.07,10.329,10.329,0,0,1-.421-1.967,1.385,1.385,0,0,0-.522-.763,4.549,4.549,0,0,1-1.545-1.746,3.253,3.253,0,0,1-.08-1.967s.582-.12.522,1.425a8.415,8.415,0,0,0,1.485,1.545s.642.462.622-.3a7.5,7.5,0,0,1,.7-1.947,4.287,4.287,0,0,0-.06-2.629s-.08-.622.482-.1a7.766,7.766,0,0,1,.361,2.208s-.562,2.549-.763,2.99a7.055,7.055,0,0,0,.14,2.89,7.145,7.145,0,0,0,1.425,2.549s.5.321.241-.3A6.242,6.242,0,0,1,15.055,55.2a7.457,7.457,0,0,1,2.689-1.906,2.3,2.3,0,0,0,1.264-.9s.261-.1.181-.963c0,0,.3-.522.522.14,0,0,.341,1.224-.341,1.605,0,0-3.03,1.886-3.552,2.729,0,0-1.224.462-1.224,2.93,0,0,.1.722,1.626,1.445,0,0,1.866,1.264,2.408,1.786,0,0,.281.321.3-.221a1.986,1.986,0,0,1,.582-1.425s.9-1.244,1.2-.8c0,0,.381.441-.12.582a2.78,2.78,0,0,0-.743,2.268,7.593,7.593,0,0,0,1.445,2.99,16.853,16.853,0,0,0,1.465,3.091s.221.4.261-.281a4.744,4.744,0,0,1,1.044-2.187s1.2-1.525,1.646-1.987a2.862,2.862,0,0,0,.361-1.425,5.3,5.3,0,0,0-.421-1.184s-2.348-3.211-2.328-3.693c0,0-.08-2.147.442-2.529,0,0,.682-1.1,1.044-1.184,0,0,.441.161-.08.522,0,0-.923.963-.7,1.766,0,0,.321,1.866,1.023,2.388A21.787,21.787,0,0,0,26.975,61.3s.381.281.261-.281c0,0,.08-5.1,0-5.218a17.68,17.68,0,0,0-.642-2.388A8.165,8.165,0,0,1,25.37,49.58s.08-2.288.843-2.95A13.327,13.327,0,0,0,27.316,45s.522-.161.161.582a5.466,5.466,0,0,0-1.265,3.285v.006a3.825,3.825,0,0,0,.441,2.569s.8,1.445.963,1.866L28,54.457h.241a2.819,2.819,0,0,1,1.3-2.147,9.758,9.758,0,0,1,2.95-2.067s1.445-.161,2.007.542c0,0,.241.883-1.044.12,0,0-.2-.321-.8.06,0,0-1.706.7-1.886,1.325a3.234,3.234,0,0,0,1.706.04s.1.783-1.044.923a1.939,1.939,0,0,0-.783-.281,2.838,2.838,0,0,0-1.886,2.147,4.237,4.237,0,0,0-.1,1.806s-.04,4.154-.522,5.378c0,0-1.2,3.311-2.087,4.094,0,0-1.445,1.726-1.284,2.669a.337.337,0,0,0,.441-.12,4.719,4.719,0,0,1,2.208-1.365s.843-.4,1.666-.682a6.353,6.353,0,0,0,2.107-.743A17.841,17.841,0,0,0,33.2,64.39a11.241,11.241,0,0,0,.883-1.726A13.429,13.429,0,0,1,35.6,59.514a7.9,7.9,0,0,1,1.4-2.549,6.349,6.349,0,0,1,5.619-1.826,1.534,1.534,0,0,0,1.485-.02s.482-.161.12.4c0,0-.1.562-1.947.321a6.478,6.478,0,0,0-4.816,1.746s-.181.321.462.281a6.434,6.434,0,0,0,2.087.321s.622.08-.321.662c0,0-.161.181-.722-.12a6.658,6.658,0,0,0-1.927-.02A10.608,10.608,0,0,0,35.3,62.725a7.8,7.8,0,0,0,2.89-.181s.843.261,2.629-1.425c0,0,.783-1.064,1.164-1.124,0,0,.622-.2.883.12,0,0,.1.5-.622.381,0,0-1.164,1.906-2.047,1.886,0,0-.482.341-.02.4a1.205,1.205,0,0,0,1.2.281,4.965,4.965,0,0,1,.662-.381s.462.522-.582.943c0,0-1.345.3-1.545-.241a1.469,1.469,0,0,0-.763-.06,1.509,1.509,0,0,0-.943.281s-1.666.2-2.228.241a2.884,2.884,0,0,0-1.605.963s-1.505,2.328-2.228,2.448c0,0-.2.261.662.361a7.364,7.364,0,0,1,2.207.983A14.968,14.968,0,0,0,37.35,70.09a3.7,3.7,0,0,0,2.328.442,7.119,7.119,0,0,0,3.652-1.264,14.221,14.221,0,0,1,3.632-1.084s1.666.08,1.886.7c0,0,.04.963-.281.562-.02.161.1-.562-1.023-.462a3.66,3.66,0,0,0-2.191.467l-.077.054a2.9,2.9,0,0,1-1.345.542s-.462.361.04.642c0,0,1.044.482,1.224.823,0,0,.341,1.023.7,1.184,0,0,.361.7-.542.361a4.5,4.5,0,0,0-.923-1.1,2.69,2.69,0,0,0-1.465-.622,1.45,1.45,0,0,0-.843.06,3.143,3.143,0,0,1-1.987.6,7.484,7.484,0,0,1-3.05-.4,1.15,1.15,0,0,0-.04.943s.662,1.184,1.264,1.385c0,0,.542.7,1.1.14,0,.12.482.221-.2.722,0,0-.321.321-1.3-.02a9.728,9.728,0,0,1-1.706-1.786,10.854,10.854,0,0,0-.482-1.445,16.655,16.655,0,0,0-2.448-2.268,14.583,14.583,0,0,0-3.853-.04,5.142,5.142,0,0,0-3.773,2.529A47.84,47.84,0,0,0,24.125,78.4s-.722,6.582-.582,7.967c0,0,.482,5.278,2.448,8.027,0,0,1.044,2.368,1.906,2.81a18.62,18.62,0,0,0,2.135.743,8.088,8.088,0,0,0,2.073-.381s2.8-.992,3.754.288a1.126,1.126,0,0,1,.081.124s-.116.7-1.561.1a4.1,4.1,0,0,0-1.585.53,5.483,5.483,0,0,1-1.565.281s-2.214.862-3.672.08c0,0-2.448-1.345-3.251-.14a1.116,1.116,0,0,1-1.706.161,3.463,3.463,0,0,0-2.509-.462,4.811,4.811,0,0,1-1.759.83l-2.167.18a3.249,3.249,0,0,0-1.672.04s-.589.589-2.274.321c0,0-.589-.642.214-.482a1.848,1.848,0,0,0,1.418-.589,5.009,5.009,0,0,1,2.7-.669,8.7,8.7,0,0,0,2.756-.749A6.4,6.4,0,0,0,20.995,95.817Z" transform="translate(-0.05 -38.884)"/>
          <path id="Shape_3" data-name="Shape 3" d="M243.028,58.43a10.51,10.51,0,0,0,.573-1.71,3.976,3.976,0,0,0,.576-1.661,12.43,12.43,0,0,0-1.2-2.69s-.153-.762-3.6-4.115c0,0-.226-.749-.027-.891a.632.632,0,0,1,.645.221s.675,1.333,1.407,1.529c.046.048.079-.1-.47-1.277a21.335,21.335,0,0,1-.738-2.042s.789-.117,1.148.922c0,0,1.078,3.108,1.27,3.422,0,0,.216.823.4.887,0,0,.086.169.116-.985,0,0-.269-2.444.315-1.776a3.208,3.208,0,0,1,.212,1.917,8.509,8.509,0,0,0-.036,1.591,1.834,1.834,0,0,1,.515.827,17.454,17.454,0,0,1,.733,2.375,2,2,0,0,0,.814-.977s.71-.781.7-1.049a2.574,2.574,0,0,0,.341-1.1s-.171-.7-.375-1.3c0,0-.12-1.529.185-1.492a3.523,3.523,0,0,0,.5,1.178s.22.726.568.216a2.319,2.319,0,0,0,.549-.975s.172-1.034.614-1.16-.016.793-.05,1.4a2.834,2.834,0,0,1-.305.68,3.965,3.965,0,0,0-.582.765s-.451,1.952-.473,2.127c0,0,1.473-1.072,1.965-1.387,0,0,.972-.047.1.409,0,0-1.755,1.337-1.982,1.6a4.323,4.323,0,0,0-.679.692,4.407,4.407,0,0,1-.582.612,6.94,6.94,0,0,1-1.151,1.048,5.043,5.043,0,0,0-.724,1.13s-.284,1.116-.287,1.244Z" transform="translate(-206.693 -39.575)"/>
          <path id="Shape_3_copy" data-name="Shape 3 copy" d="M65.561,203.943a10.513,10.513,0,0,0-.671,1.674,3.977,3.977,0,0,0-.671,1.625A12.433,12.433,0,0,0,65.261,210s.109.77,3.359,4.316c0,0,.182.761-.024.891a.632.632,0,0,1-.631-.258s-.6-1.37-1.316-1.608c-.043-.051-.085.1.4,1.3a21.349,21.349,0,0,1,.619,2.081s-.794.071-1.093-.987c0,0-.9-3.165-1.071-3.49,0,0-.168-.834-.35-.909,0,0-.076-.174-.173.977,0,0,.128,2.455-.417,1.755a3.207,3.207,0,0,1-.1-1.926,8.5,8.5,0,0,0,.128-1.587,1.834,1.834,0,0,1-.467-.856,17.456,17.456,0,0,1-.594-2.414,2,2,0,0,0-.869.929s-.754.738-.764,1.007a2.573,2.573,0,0,0-.4,1.08s.13.709.3,1.32c0,0,.031,1.533-.271,1.479a3.523,3.523,0,0,0-.431-1.205s-.177-.738-.555-.248a2.319,2.319,0,0,0-.6.942s-.231,1.023-.68,1.123.062-.791.131-1.4a2.832,2.832,0,0,1,.344-.661,3.965,3.965,0,0,0,.626-.73s.563-1.923.6-2.1c0,0-1.532.985-2.042,1.271,0,0-.973-.009-.071-.414,0,0,1.829-1.233,2.072-1.485a4.325,4.325,0,0,0,.718-.651,4.407,4.407,0,0,1,.616-.578,6.942,6.942,0,0,1,1.21-.98,5.041,5.041,0,0,0,.788-1.087s.348-1.1.358-1.226Z" transform="translate(-50.494 -175.965)"/>
          <path id="Shape_3_copy_2" data-name="Shape 3 copy 2" d="M115.721,95.262a9.857,9.857,0,0,0,.541-1.6,3.729,3.729,0,0,0,.543-1.556,11.657,11.657,0,0,0-1.119-2.524s-.142-.715-3.37-3.865c0,0-.21-.7-.024-.835a.592.592,0,0,1,.6.209s.63,1.251,1.316,1.436c.043.045.075-.1-.438-1.2a20.012,20.012,0,0,1-.688-1.916s.74-.108,1.075.867c0,0,1,2.916,1.184,3.211,0,0,.2.772.375.832,0,0,.081.159.111-.924,0,0-.248-2.292.3-1.664a3.007,3.007,0,0,1,.2,1.8,7.976,7.976,0,0,0-.037,1.492,1.72,1.72,0,0,1,.481.777,16.366,16.366,0,0,1,.682,2.228,1.873,1.873,0,0,0,.765-.915s.667-.73.663-.982A2.411,2.411,0,0,0,119.2,89.1s-.158-.657-.349-1.22c0,0-.109-1.434.177-1.4a3.3,3.3,0,0,0,.466,1.106s.2.681.532.2a2.175,2.175,0,0,0,.516-.913s.163-.969.578-1.086-.016.743-.05,1.313a2.657,2.657,0,0,1-.288.637,3.715,3.715,0,0,0-.547.716s-.427,1.829-.448,1.993c0,0,1.383-1,1.845-1.3,0,0,.911-.042.089.384,0,0-1.648,1.25-1.862,1.5a4.055,4.055,0,0,0-.638.647,4.133,4.133,0,0,1-.546.573,6.505,6.505,0,0,1-1.081.98,4.726,4.726,0,0,0-.681,1.058s-.268,1.046-.271,1.166Z" transform="translate(-96.942 -72.07)"/>
          <path id="Shape_3_copy_3" data-name="Shape 3 copy 3" d="M213.961,129.64a8.1,8.1,0,0,1-.44-1.317,3.063,3.063,0,0,1-.442-1.28,9.572,9.572,0,0,1,.926-2.069s.118-.587,2.778-3.165c0,0,.175-.577.022-.686a.486.486,0,0,0-.5.17s-.521,1.025-1.085,1.176c-.035.037-.061-.08.363-.983a16.43,16.43,0,0,0,.57-1.571s-.607-.09-.885.709c0,0-.833,2.392-.981,2.633,0,0-.167.633-.31.683,0,0-.067.13-.089-.759,0,0,.21-1.881-.241-1.368a2.469,2.469,0,0,0-.165,1.476,6.545,6.545,0,0,1,.027,1.225,1.412,1.412,0,0,0-.4.637,13.452,13.452,0,0,0-.566,1.828,1.538,1.538,0,0,1-.626-.753s-.546-.6-.542-.808a1.98,1.98,0,0,1-.262-.848s.132-.539.29-1c0,0,.094-1.177-.141-1.149a2.712,2.712,0,0,1-.386.907s-.17.559-.438.166a1.786,1.786,0,0,1-.422-.751s-.131-.8-.471-.894.012.61.038,1.078a2.18,2.18,0,0,0,.234.524,3.053,3.053,0,0,1,.448.59s.346,1.5.362,1.638c0,0-1.133-.826-1.511-1.069,0,0-.748-.037-.074.315,0,0,1.35,1.031,1.525,1.235a3.331,3.331,0,0,1,.522.533,3.4,3.4,0,0,0,.447.472,5.344,5.344,0,0,0,.885.808,3.878,3.878,0,0,1,.556.871s.217.859.22.958Z" transform="translate(-180.345 -103.604)"/>
          <path id="Shape_3_copy_7" data-name="Shape 3 copy 7" d="M297.767,182.442a8.084,8.084,0,0,1,.664-1.22,3.061,3.061,0,0,1,.634-1.2,9.574,9.574,0,0,1,2.145-.734s.51-.313,4.209-.127c0,0,.541-.266.517-.452a.487.487,0,0,0-.463-.247s-1.105.318-1.6.009c-.051,0,.017-.1.966-.4a16.434,16.434,0,0,0,1.538-.655.865.865,0,0,0-1.122-.164s-2.317,1.022-2.595,1.078c0,0-.577.309-.711.239,0,0-.141.04.495-.582,0,0,1.519-1.13.836-1.109,0,0-.953.353-1.192.886a6.553,6.553,0,0,1-.878.855,1.411,1.411,0,0,0-.737.143,13.442,13.442,0,0,0-1.723.832,1.539,1.539,0,0,1,.124-.971s.068-.809.222-.948a1.981,1.981,0,0,1,.442-.77s.484-.271.93-.47c0,0,.925-.734.744-.887a2.713,2.713,0,0,1-.926.336s-.524.257-.42-.207a1.785,1.785,0,0,1,.262-.821s.493-.639.332-.954-.439.425-.763.763a2.182,2.182,0,0,0-.223.528,3.056,3.056,0,0,1-.126.73s-.864,1.278-.951,1.382c0,0-.168-1.392-.249-1.835,0,0-.483-.573-.281.161,0,0,.167,1.69.136,1.957a3.335,3.335,0,0,1-.034.745,3.392,3.392,0,0,0-.04.649,5.346,5.346,0,0,0,.013,1.2,3.879,3.879,0,0,1-.258,1s-.48.745-.551.814Z" transform="translate(-256.681 -150.174)"/>
          <path id="Shape_3_copy_4" data-name="Shape 3 copy 4" d="M148.35,12.865a10.332,10.332,0,0,1-.872-1.543,3.907,3.907,0,0,1-.865-1.5,12.215,12.215,0,0,1,.656-2.818s.006-.764,2.71-4.641c0,0,.078-.765-.14-.865a.621.621,0,0,0-.581.334s-.4,1.411-1.072,1.737c-.035.055-.1-.085.215-1.319a20.989,20.989,0,0,0,.331-2.107s-.783.034-.936,1.1c0,0-.461,3.2-.588,3.538,0,0-.056.834-.223.931,0,0-.052.18-.3-.929,0,0-.2-2.408-.635-1.655a3.151,3.151,0,0,0,.152,1.889,8.354,8.354,0,0,1,.331,1.528,1.8,1.8,0,0,0-.343.894,17.143,17.143,0,0,0-.265,2.428,1.963,1.963,0,0,1-.967-.791s-.83-.621-.876-.881a2.528,2.528,0,0,1-.534-1s.034-.708.12-1.325c0,0-.169-1.5-.457-1.4a3.462,3.462,0,0,1-.263,1.23s-.077.741-.508.314a2.278,2.278,0,0,1-.711-.839s-.358-.966-.808-1,.163.762.309,1.342a2.783,2.783,0,0,0,.421.6,3.894,3.894,0,0,1,.7.63s.8,1.8.853,1.963c0,0-1.62-.76-2.154-.972,0,0-.946.135-.016.412,0,0,1.942.963,2.211,1.176a4.251,4.251,0,0,1,.784.541,4.331,4.331,0,0,0,.675.482,6.82,6.82,0,0,0,1.306.8,4.953,4.953,0,0,1,.909.956s.481,1.024.508,1.147Z" transform="translate(-121.493 -0.148)"/>
          <path id="Shape_3_copy_5" data-name="Shape 3 copy 5" d="M291.086,124.532a10.332,10.332,0,0,1,1.492-.956,3.907,3.907,0,0,1,1.445-.947,12.214,12.214,0,0,1,2.85.5s.763-.037,4.784,2.446c0,0,.768.036.855-.188a.621.621,0,0,0-.366-.561s-1.432-.324-1.794-.974c-.057-.032.08-.1,1.329.141a20.987,20.987,0,0,0,2.122.213s-.078-.78-1.154-.873c0,0-3.22-.282-3.565-.39,0,0-.836-.009-.941-.17,0,0-.182-.042.911-.347,0,0,2.393-.329,1.617-.726a3.151,3.151,0,0,0-1.877.257,8.358,8.358,0,0,1-1.508.416,1.8,1.8,0,0,0-.912-.293,17.153,17.153,0,0,0-2.439-.129,1.963,1.963,0,0,1,.736-1.01s.574-.863.831-.923a2.528,2.528,0,0,1,.968-.589s.708-.005,1.33.046c0,0,1.485-.252,1.377-.534a3.462,3.462,0,0,1-1.243-.194s-.745-.035-.342-.49a2.278,2.278,0,0,1,.8-.757s.944-.411.958-.863-.752.205-1.322.384a2.783,2.783,0,0,0-.574.454,3.9,3.9,0,0,1-.59.738s-1.752.9-1.913.961c0,0,.668-1.66.85-2.2,0,0-.188-.937-.413.007,0,0-.853,1.993-1.051,2.273a4.252,4.252,0,0,1-.5.813,4.337,4.337,0,0,0-.444.7,6.819,6.819,0,0,0-.723,1.348,4.952,4.952,0,0,1-.9.96s-1,.538-1.117.572Z" transform="translate(-251.082 -100.639)"/>
          <path id="Shape_3_copy_6" data-name="Shape 3 copy 6" d="M9.267,113.083A10.329,10.329,0,0,1,8.1,111.748a3.908,3.908,0,0,1-1.15-1.289,12.215,12.215,0,0,1,.072-2.892s-.149-.749,1.714-5.093c0,0-.078-.765-.312-.818a.621.621,0,0,0-.5.444s-.109,1.464-.7,1.918c-.023.061-.111-.064-.056-1.336a20.974,20.974,0,0,0-.1-2.13s-.76.192-.693,1.27c0,0,.2,3.226.14,3.583,0,0,.114.828-.03.956,0,0-.014.186-.477-.85,0,0-.679-2.318-.956-1.492a3.151,3.151,0,0,0,.532,1.819,8.353,8.353,0,0,1,.634,1.43,1.8,1.8,0,0,0-.155.945,17.151,17.151,0,0,0,.232,2.431,1.963,1.963,0,0,1-1.107-.579s-.939-.44-1.036-.685a2.528,2.528,0,0,1-.726-.87s-.11-.7-.151-1.322c0,0-.469-1.432-.732-1.283a3.462,3.462,0,0,1-.008,1.258s.075.742-.434.41a2.279,2.279,0,0,1-.866-.677s-.546-.873-.995-.82.314.713.575,1.251a2.783,2.783,0,0,0,.534.5,3.9,3.9,0,0,1,.817.474s1.147,1.6,1.232,1.75c0,0-1.741-.416-2.306-.516,0,0-.9.324.068.407,0,0,2.1.55,2.4.7a4.249,4.249,0,0,1,.877.371,4.333,4.333,0,0,0,.759.336,6.82,6.82,0,0,0,1.44.516,4.952,4.952,0,0,1,1.083.752s.679.9.73,1.02Z" transform="translate(-0.092 -86.88)"/>
        </g>
      </g>
      <path id="Color_Overlay" data-name="Color Overlay" d="M12.169,61.014s-.589-.642.214-.482a1.847,1.847,0,0,0,1.417-.589,5,5,0,0,1,2.7-.669,8.69,8.69,0,0,0,2.756-.75,6.388,6.388,0,0,0,1.686-1.592s.2-2.649-.16-3.01c0,0-.842-1.486-.723-6.5,0,0,.522-7.867.6-8.629,0,0,.1-.477.4-1.565a25.806,25.806,0,0,0,.362-3.854s-.763-3.05-2.65-4.174a8.881,8.881,0,0,0-4.184-.151,4.425,4.425,0,0,0-.2.6,3.981,3.981,0,0,0-.671,1.625,12.429,12.429,0,0,0,1.042,2.755s.108.77,3.359,4.316c0,0,.183.76-.024.891a.633.633,0,0,1-.631-.258s-.6-1.37-1.316-1.608c-.043-.05-.086.1.4,1.3a21.3,21.3,0,0,1,.618,2.081s-.794.071-1.093-.986c0,0-.9-3.165-1.071-3.49,0,0-.168-.833-.35-.908,0,0-.076-.175-.173.977,0,0,.128,2.455-.417,1.755a3.206,3.206,0,0,1-.1-1.926,8.574,8.574,0,0,0,.129-1.587,1.839,1.839,0,0,1-.467-.856,17.477,17.477,0,0,1-.594-2.414,2,2,0,0,0-.869.929s-.753.738-.764,1.007a2.578,2.578,0,0,0-.4,1.08s.13.709.3,1.32c0,0,.031,1.533-.271,1.479a3.526,3.526,0,0,0-.431-1.205s-.177-.738-.555-.248a2.321,2.321,0,0,0-.6.941s-.231,1.022-.679,1.123.061-.791.13-1.4a2.851,2.851,0,0,1,.345-.661,3.973,3.973,0,0,0,.625-.73s.563-1.923.595-2.1c0,0-1.532.985-2.041,1.271,0,0-.973-.009-.071-.414,0,0,1.829-1.233,2.071-1.484a4.333,4.333,0,0,0,.718-.652,4.4,4.4,0,0,1,.616-.578,6.938,6.938,0,0,1,1.21-.98,9.521,9.521,0,0,0,.614-.758,26.065,26.065,0,0,0-4.54,2.138s-1.284,1.4-1.2,2.288a2.255,2.255,0,0,1-.843,1.525s-1.766,2.368-3.091,1.124c0,0-.16-.3.4-.141,0,0,.6.321,1.847-1.084a18.4,18.4,0,0,0,1.144-2.89,8.019,8.019,0,0,1-3.071.362A3.819,3.819,0,0,1,1.88,31.507,8.214,8.214,0,0,0,.054,30.022s-.24-.482.3-.382a11.363,11.363,0,0,1,2.308,1.645,4.259,4.259,0,0,0,3.773.161,5.872,5.872,0,0,0,1.726-.883s2.288-1.425,3.231-1.847c0,0,.542-.221.1-.421a1.388,1.388,0,0,1-1.064-.281A16.651,16.651,0,0,1,7.8,26.651,13.123,13.123,0,0,1,6.15,24.876a4.826,4.826,0,0,1-1.044-.4,4.322,4.322,0,0,1-.759-.336,4.243,4.243,0,0,0-.877-.371c-.306-.155-2.4-.7-2.4-.7C.1,22.981,1,22.657,1,22.657c.565.1,2.306.516,2.306.516-.086-.149-1.232-1.75-1.232-1.75a3.922,3.922,0,0,0-.817-.473,2.783,2.783,0,0,1-.534-.5C.461,19.909-.3,19.25.148,19.2s.994.82.994.82a2.278,2.278,0,0,0,.866.678c.509.331.434-.41.434-.41a3.465,3.465,0,0,0,.009-1.257c.263-.149.732,1.282.732,1.282.041.622.15,1.322.15,1.322a2.533,2.533,0,0,0,.725.87c.1.245,1.036.685,1.036.685a2.193,2.193,0,0,0,.4.314,3.4,3.4,0,0,1-.583-1.506s-.542-1.766-.622-2.127a1.682,1.682,0,0,0-1.043-1.1s-.181-.522.682-.362a3,3,0,0,1,1.1,1.184s.587,1.5.985,2.615c-.03-.472-.047-.868-.047-.868a1.8,1.8,0,0,1,.155-.945,8.341,8.341,0,0,0-.635-1.429,3.154,3.154,0,0,1-.531-1.819c.277-.827.956,1.491.956,1.491.464,1.036.478.85.478.85.144-.128.03-.956.03-.956.056-.357-.14-3.584-.14-3.584-.067-1.077.693-1.27.693-1.27a20.974,20.974,0,0,1,.1,2.13c-.055,1.272.033,1.4.056,1.336.59-.454.7-1.918.7-1.918a.623.623,0,0,1,.5-.445c.234.054.312.819.312.819-1.863,4.344-1.714,5.093-1.714,5.093a8.909,8.909,0,0,0-.117,2.11A4.943,4.943,0,0,1,7.3,21.614a5.507,5.507,0,0,0,.682-1.044,3.3,3.3,0,0,0-.02-.983s.3-.221.441.24a1.207,1.207,0,0,1-.14,1.2s.1.963-.481,1.305a2.747,2.747,0,0,0-.2,1.645,3.109,3.109,0,0,0,.257.751c.1.086.172.136.172.136a7.516,7.516,0,0,0,.845,1.01,2.3,2.3,0,0,0,.632.25,4.677,4.677,0,0,0,2.309,1.023,10.868,10.868,0,0,0,2.227.241s2.508-.221,3.271-.181a6.993,6.993,0,0,1,2.188.321,6.478,6.478,0,0,0-1.325-2.469,22.276,22.276,0,0,0-2.128-1.986,8.52,8.52,0,0,1-2.066-1.245,24.459,24.459,0,0,1-1.786-1.786,5.148,5.148,0,0,1-1.4-3.071,10.369,10.369,0,0,1-.421-1.966,1.387,1.387,0,0,0-.522-.763A4.551,4.551,0,0,1,8.282,12.5a3.262,3.262,0,0,1-.08-1.967s.582-.12.522,1.426a8.4,8.4,0,0,0,1.485,1.544s.643.462.622-.3a7.5,7.5,0,0,1,.7-1.947,4.286,4.286,0,0,0-.06-2.629s-.08-.622.482-.1a7.766,7.766,0,0,1,.361,2.207s-.562,2.549-.762,2.991a7.059,7.059,0,0,0,.14,2.89,7.152,7.152,0,0,0,1.425,2.549s.5.32.241-.3A6.242,6.242,0,0,1,15,16.315a9.021,9.021,0,0,1,1.639-1.4c-.358-.373-.778-.8-1.268-1.274,0,0-.211-.7-.024-.835a.592.592,0,0,1,.6.209s.631,1.251,1.316,1.436c.043.045.075-.1-.437-1.2a19.923,19.923,0,0,1-.688-1.916s.74-.108,1.075.867c0,0,.4,1.174.746,2.108a2.472,2.472,0,0,0,.992-.81s.261-.1.181-.963c0,0,.3-.522.521.14,0,0,.321,1.154-.284,1.571a2.074,2.074,0,0,1,.009,1.207,7.887,7.887,0,0,0-.037,1.492,1.72,1.72,0,0,1,.481.777,16.341,16.341,0,0,1,.683,2.228,1.873,1.873,0,0,0,.765-.914s.667-.731.663-.983a2.4,2.4,0,0,0,.321-1.032s-.158-.657-.349-1.22c0,0-.109-1.433.177-1.4a3.29,3.29,0,0,0,.466,1.105s.2.681.532.2a2.178,2.178,0,0,0,.517-.913s.163-.969.578-1.087-.016.743-.05,1.313a2.64,2.64,0,0,1-.287.636,3.715,3.715,0,0,0-.547.716s-.428,1.83-.448,1.993l.431-.31c.031-.647.131-1.47.435-1.692,0,0,.682-1.1,1.043-1.184,0,0,.442.161-.08.522,0,0-.923.964-.7,1.766,0,0,0,.031.015.085.281-.2.546-.381.7-.482,0,0,.911-.043.088.383,0,0-.319.242-.694.534A3.74,3.74,0,0,0,25,19.868a21.866,21.866,0,0,0,1.926,2.549s.382.281.261-.281c0,0,.08-5.1,0-5.218a17.746,17.746,0,0,0-.642-2.388A9.058,9.058,0,0,1,25.507,12.1l-.069-.149A4.948,4.948,0,0,0,24.529,11a6.885,6.885,0,0,1-1.306-.8,4.337,4.337,0,0,1-.675-.482,4.229,4.229,0,0,0-.783-.541C21.5,8.964,19.554,8,19.554,8c-.931-.277.015-.412.015-.412.533.212,2.154.972,2.154.972C21.669,8.4,20.871,6.6,20.871,6.6a3.9,3.9,0,0,0-.7-.63,2.783,2.783,0,0,1-.421-.6c-.147-.58-.762-1.38-.31-1.342s.808,1.005.808,1.005a2.284,2.284,0,0,0,.711.839c.432.427.508-.314.508-.314a3.463,3.463,0,0,0,.263-1.23c.287-.092.456,1.4.456,1.4-.086.617-.12,1.325-.12,1.325a2.528,2.528,0,0,0,.535,1c.045.26.876.881.876.881a1.961,1.961,0,0,0,.967.791A17.124,17.124,0,0,1,24.7,7.3a1.8,1.8,0,0,1,.343-.895,8.306,8.306,0,0,0-.331-1.528,3.15,3.15,0,0,1-.152-1.889c.439-.753.635,1.655.635,1.655.244,1.108.3.929.3.929.167-.1.222-.931.222-.931.128-.338.589-3.538.589-3.538.153-1.069.936-1.1.936-1.1a21.2,21.2,0,0,1-.332,2.107c-.311,1.234-.25,1.374-.215,1.319.67-.326,1.073-1.737,1.073-1.737a.62.62,0,0,1,.581-.333c.218.1.139.864.139.864-2.7,3.877-2.71,4.64-2.71,4.64a12.214,12.214,0,0,0-.655,2.818,1.7,1.7,0,0,0,.226.608,4.534,4.534,0,0,1,.815-2.54,13.321,13.321,0,0,0,1.1-1.625s.522-.161.161.581a5.465,5.465,0,0,0-1.264,3.286v.005a3.823,3.823,0,0,0,.083,1.726c.269.491.612,1,.612,1l-.137.058c.229.418.724,1.333.847,1.653l.381,1.144h.241a2.818,2.818,0,0,1,1.3-2.147,9.762,9.762,0,0,1,2.95-2.066s1.445-.161,2.007.542c0,0,.241.883-1.044.12,0,0-.2-.32-.8.06,0,0-1.706.7-1.886,1.325a3.24,3.24,0,0,0,1.705.04s.1.782-1.044.923a1.942,1.942,0,0,0-.782-.281,2.838,2.838,0,0,0-1.886,2.147,4.234,4.234,0,0,0-.1,1.806s-.014,1.518-.133,2.99a.977.977,0,0,1,.3-.029c.379.243,1.512,1.069,1.512,1.069-.017-.134-.363-1.638-.363-1.638a3.036,3.036,0,0,0-.447-.59,2.174,2.174,0,0,1-.235-.524c-.026-.467-.381-1.175-.038-1.078s.472.894.472.894a1.786,1.786,0,0,0,.422.751c.267.393.437-.166.437-.166a2.721,2.721,0,0,0,.386-.906c.235-.029.141,1.148.141,1.148-.158.462-.29,1-.29,1a1.975,1.975,0,0,0,.261.848c0,.207.542.808.542.808a1.542,1.542,0,0,0,.626.753,13.431,13.431,0,0,1,.566-1.828,1.41,1.41,0,0,1,.4-.636,6.583,6.583,0,0,0-.027-1.225,2.474,2.474,0,0,1,.166-1.476c.45-.514.24,1.368.24,1.368.022.888.089.758.089.758.142-.049.31-.682.31-.682.149-.241.982-2.633.982-2.633.277-.8.885-.708.885-.708a16.445,16.445,0,0,1-.57,1.571c-.424.9-.4,1.021-.363.983.563-.15,1.084-1.175,1.084-1.175a.486.486,0,0,1,.5-.17c.153.109-.022.686-.022.686-2.66,2.579-2.777,3.165-2.777,3.165a9.534,9.534,0,0,0-.926,2.069,3.074,3.074,0,0,0,.442,1.28,3.544,3.544,0,0,0,.135.511,9.1,9.1,0,0,0,.718-1.45,13.443,13.443,0,0,1,1.525-3.151,11.866,11.866,0,0,1,.8-1.769l-.022-.005a10.482,10.482,0,0,0,.573-1.711,3.984,3.984,0,0,0,.576-1.661,12.448,12.448,0,0,0-1.2-2.689s-.153-.762-3.6-4.115c0,0-.226-.75-.027-.891a.63.63,0,0,1,.644.221s.675,1.333,1.407,1.529c.046.048.079-.1-.47-1.277A21.342,21.342,0,0,1,33.5,6.219s.788-.117,1.148.922c0,0,1.077,3.108,1.27,3.422,0,0,.217.823.4.887,0,0,.086.17.116-.985,0,0-.269-2.444.315-1.777a3.206,3.206,0,0,1,.212,1.917,8.419,8.419,0,0,0-.036,1.592,1.834,1.834,0,0,1,.515.827,17.414,17.414,0,0,1,.733,2.375,2,2,0,0,0,.814-.977s.709-.78.7-1.049a2.574,2.574,0,0,0,.341-1.1s-.17-.7-.375-1.3c0,0-.12-1.529.185-1.492a3.535,3.535,0,0,0,.5,1.179s.22.725.568.215a2.318,2.318,0,0,0,.549-.975s.172-1.035.614-1.16-.016.793-.05,1.4a2.837,2.837,0,0,1-.305.679,3.961,3.961,0,0,0-.582.765s-.452,1.952-.473,2.127c0,0,1.472-1.072,1.965-1.387,0,0,.972-.047.1.41,0,0-1.755,1.336-1.983,1.6a4.331,4.331,0,0,0-.679.691,4.472,4.472,0,0,1-.581.613,6.965,6.965,0,0,1-1.151,1.048s-.248.31-.455.616a6.282,6.282,0,0,1,4.7-1.047,1.533,1.533,0,0,0,1.485-.02s.229-.076.252.061c.221-.875.4.033.4.033-.183.544-.85,2.2-.85,2.2.161-.063,1.912-.961,1.912-.961a3.871,3.871,0,0,0,.59-.738,2.766,2.766,0,0,1,.574-.454c.571-.179,1.336-.839,1.323-.384s-.958.863-.958.863a2.282,2.282,0,0,0-.8.757c-.4.455.341.49.341.49A3.451,3.451,0,0,0,48.1,18.3c.109.283-1.377.535-1.377.535-.621-.051-1.329-.046-1.329-.046a2.525,2.525,0,0,0-.968.59c-.257.059-.831.923-.831.923a1.957,1.957,0,0,0-.736,1.01,17.12,17.12,0,0,1,2.439.129,1.806,1.806,0,0,1,.912.292,8.4,8.4,0,0,0,1.507-.416,3.147,3.147,0,0,1,1.877-.257c.777.4-1.616.725-1.616.725-1.094.306-.912.347-.912.347.106.161.942.17.942.17.345.109,3.565.391,3.565.391,1.076.093,1.154.873,1.154.873a20.93,20.93,0,0,1-2.122-.214c-1.249-.241-1.387-.173-1.329-.141.362.651,1.794.974,1.794.974a.621.621,0,0,1,.365.562c-.087.223-.855.187-.855.187-4.022-2.483-4.784-2.446-4.784-2.446a12.237,12.237,0,0,0-2.85-.5,3.9,3.9,0,0,0-1.445.947,10.084,10.084,0,0,0-1.472.941.51.51,0,0,0,.106.023,1.206,1.206,0,0,0,1.2.281A4.955,4.955,0,0,1,42,23.8s.462.522-.582.943c0,0-1.345.3-1.545-.24a1.47,1.47,0,0,0-.762-.06,1.512,1.512,0,0,0-.943.281s-1.666.2-2.228.241a2.88,2.88,0,0,0-1.606.963s-1.5,2.327-2.228,2.448c0,0-.2.261.662.362a7.358,7.358,0,0,1,2.208.983A14.924,14.924,0,0,0,37.3,31.206a3.7,3.7,0,0,0,2.328.442A8.639,8.639,0,0,0,40.68,31.5c.154-.229.326-.5.326-.5a3.88,3.88,0,0,0,.257-1,5.3,5.3,0,0,1-.013-1.2,3.365,3.365,0,0,1,.04-.649,3.338,3.338,0,0,0,.033-.745c.031-.266-.136-1.957-.136-1.957-.2-.733.28-.161.28-.161.081.443.249,1.834.249,1.834.086-.1.95-1.382.95-1.382a3.065,3.065,0,0,0,.126-.73,2.2,2.2,0,0,1,.223-.528c.324-.337.6-1.08.763-.762s-.332.954-.332.954a1.786,1.786,0,0,0-.263.821c-.1.464.42.207.42.207a2.713,2.713,0,0,0,.926-.336c.181.152-.744.886-.744.886-.445.2-.93.471-.93.471a1.978,1.978,0,0,0-.442.769c-.154.139-.222.948-.222.948a1.544,1.544,0,0,0-.124.972,13.442,13.442,0,0,1,1.724-.833,1.413,1.413,0,0,1,.737-.144,6.558,6.558,0,0,0,.877-.855c.239-.532,1.193-.885,1.193-.885.682-.022-.836,1.109-.836,1.109-.635.622-.5.581-.5.581.134.071.711-.238.711-.238.278-.056,2.595-1.078,2.595-1.078a.866.866,0,0,1,1.122.164,16.328,16.328,0,0,1-1.538.655c-.949.306-1.017.4-.966.405.494.31,1.6-.009,1.6-.009a.485.485,0,0,1,.463.248c.024.186-.517.452-.517.452-3.7-.187-4.208.126-4.208.126a9.608,9.608,0,0,0-2.145.734,3.06,3.06,0,0,0-.635,1.2,2.333,2.333,0,0,0-.149.221,4.7,4.7,0,0,0,1.679-.885A14.23,14.23,0,0,1,46.913,29.3s1.666.08,1.886.7c0,0,.041.964-.281.563-.011.083.016-.071-.111-.224s-.371-.286-.913-.238a3.659,3.659,0,0,0-2.191.467c-.026.018-.052.036-.077.055a2.9,2.9,0,0,1-1.345.542s-.462.361.04.642c0,0,1.043.481,1.224.823,0,0,.341,1.024.7,1.184,0,0,.362.7-.542.361a4.484,4.484,0,0,0-.923-1.1,2.686,2.686,0,0,0-1.464-.622,1.446,1.446,0,0,0-.843.06,3.145,3.145,0,0,1-1.986.6,7.5,7.5,0,0,1-3.051-.4,1.151,1.151,0,0,0-.04.943s.662,1.183,1.264,1.384c0,0,.542.7,1.1.14,0,.121.481.221-.2.723,0,0-.321.321-1.3-.02A9.746,9.746,0,0,1,36.157,34.1a10.9,10.9,0,0,0-.481-1.444,16.653,16.653,0,0,0-2.448-2.268,14.608,14.608,0,0,0-3.853-.041A5.141,5.141,0,0,0,25.6,32.872a47.808,47.808,0,0,0-1.525,6.643s-.723,6.582-.582,7.967c0,0,.482,5.278,2.449,8.027,0,0,1.043,2.368,1.906,2.81a18.645,18.645,0,0,0,2.135.743,8.094,8.094,0,0,0,2.074-.381s2.8-.993,3.754.288a.982.982,0,0,1,.081.124s-.116.7-1.562.1a4.1,4.1,0,0,0-1.585.531A5.5,5.5,0,0,1,31.18,60s-2.213.861-3.672.08c0,0-2.449-1.345-3.251-.14a1.117,1.117,0,0,1-1.706.16,3.464,3.464,0,0,0-2.508-.462,4.8,4.8,0,0,1-1.76.831l-2.167.18a3.249,3.249,0,0,0-1.672.04A2.1,2.1,0,0,1,13,61.084,5.276,5.276,0,0,1,12.169,61.014ZM28.089,23.42s-1.2,3.311-2.086,4.093c0,0-1.445,1.726-1.285,2.669a.338.338,0,0,0,.442-.121A4.717,4.717,0,0,1,27.367,28.7s.842-.4,1.665-.682a6.356,6.356,0,0,0,2.108-.743s.994-.76,1.653-1.4c-.065-.28-.155-.64-.155-.64a3.884,3.884,0,0,0-.556-.871,5.4,5.4,0,0,1-.886-.807,3.438,3.438,0,0,1-.447-.472,3.3,3.3,0,0,0-.521-.533c-.175-.2-1.525-1.235-1.525-1.235a1.073,1.073,0,0,1-.237-.152A9.636,9.636,0,0,1,28.089,23.42Zm-5.168-4.457a4.076,4.076,0,0,0-.638.647,4.139,4.139,0,0,1-.546.573,5.611,5.611,0,0,1-.934.863c0,.105-.059.21-.259.265l-.026.028a3.38,3.38,0,0,0-.543.882s-.137.534-.216.882a2.024,2.024,0,0,0,.042.476,7.588,7.588,0,0,0,1.445,2.99,16.84,16.84,0,0,0,1.465,3.091s.221.4.261-.281a4.736,4.736,0,0,1,1.043-2.187s1.2-1.525,1.645-1.987a2.861,2.861,0,0,0,.362-1.425A5.321,5.321,0,0,0,25.6,22.6s-2.348-3.21-2.328-3.692c0,0,0-.1,0-.253A3.757,3.757,0,0,0,22.921,18.963ZM37,19.827a10.607,10.607,0,0,0-1.746,4.014,7.8,7.8,0,0,0,2.89-.181s.484.15,1.5-.512L39.572,23c.074-.021.478-.231.778-.391.134-.113.274-.239.422-.378a5.908,5.908,0,0,1,.931-1.01,5.53,5.53,0,0,1,.611-1.1,4.365,4.365,0,0,1,.445-.7,4.255,4.255,0,0,0,.5-.813c.144-.2.63-1.3.887-1.894-.11.146-.507.424-1.9.241A6.476,6.476,0,0,0,37.421,18.7s-.181.32.462.281a6.436,6.436,0,0,0,2.087.321s.622.08-.321.661c0,0-.16.181-.723-.12a13.247,13.247,0,0,0-1.345-.1A1.467,1.467,0,0,0,37,19.827Zm2.989,4.035-.056-.113A.1.1,0,0,0,39.989,23.862ZM15.768,17.018s-1.225.461-1.225,2.93c0,0,.1.723,1.626,1.445a29.969,29.969,0,0,1,2.407,1.786s.17.2.255.026l-.052-.012s.04-.093.1-.239a1.974,1.974,0,0,1,.417-1.229c.011-.047.02-.093.027-.135a3.723,3.723,0,0,0,.543-1.556,11.629,11.629,0,0,0-1.119-2.524s-.078-.392-1.427-1.872A7.019,7.019,0,0,0,15.768,17.018ZM18.225,15a3.61,3.61,0,0,0,.18.415s.2.772.375.833c0,0,.08.159.111-.923,0,0-.038-.346-.051-.732C18.665,14.709,18.455,14.847,18.225,15Z" transform="translate(0.007 0.02)"/>
    </g>
    <path id="Wallie" d="M21.286,28.392l-4.949,9.588L0,0H8.408l8.781,21.041.8-1.492L9.9,0h8.355l7.929,19.39L34.058,0h8.408L26.182,37.981ZM128,37.288V12.252h15.964V19.07h-8.621V21.2h7.929v6.392h-7.929V30.47h8.781v6.818Zm-46.156,0V12.252h7.344V30.47h9.1v6.818Zm-20.647,0V12.252h7.344V30.47h9.1v6.818Zm-10.377,0-1.064-2.5h-6.6l-1.064,2.5H34.219l12.24-25.676L58.7,37.288Zm-5.854-7.617h2.98l-1.49-3.729Z" transform="translate(530.299 181.83)"/>
  </g>
</svg>
