<svg xmlns="http://www.w3.org/2000/svg" width="31" height="20" viewBox="0 0 31 20">
  <g id="Group_1391" data-name="Group 1391" transform="translate(-29.5 -29.076)">
    <g id="Rectangle_783" data-name="Rectangle 783" transform="translate(29.5 29.076)" stroke="#fff" stroke-width="0.4">
      <rect width="31" height="4" rx="2" stroke="none"/>
      <rect x="0.2" y="0.2" width="30.6" height="3.6" rx="1.8" fill="none"/>
    </g>
    <g id="Path_584" data-name="Path 584" transform="translate(29.5 37.03)">
      <path d="M 15.77724647521973 3.815242528915405 L 1.753026723861694 3.815242528915405 C 0.8966867327690125 3.815242528915405 0.1999967247247696 3.004352569580078 0.1999967247247696 2.007622480392456 C 0.1999967247247696 1.010892510414124 0.8966867327690125 0.2000024765729904 1.753026723861694 0.2000024765729904 L 15.77724647521973 0.2000024765729904 C 16.63358688354492 0.2000024765729904 17.33027648925781 1.010892510414124 17.33027648925781 2.007622480392456 C 17.33027648925781 3.004352569580078 16.63358688354492 3.815242528915405 15.77724647521973 3.815242528915405 Z" stroke="none"/>
      <path d="M 1.753026962280273 0.4000024795532227 C 1.006967544555664 0.4000024795532227 0.3999958038330078 1.121182441711426 0.3999958038330078 2.007622480392456 C 0.3999958038330078 2.894062519073486 1.006967544555664 3.615242481231689 1.753026962280273 3.615242481231689 L 15.77724647521973 3.615242481231689 C 16.52330589294434 3.615242481231689 17.13027763366699 2.894062519073486 17.13027763366699 2.007622480392456 C 17.13027763366699 1.121182441711426 16.52330589294434 0.4000024795532227 15.77724647521973 0.4000024795532227 L 1.753026962280273 0.4000024795532227 M 1.753026962280273 2.384185791015625e-06 L 15.77724647521973 2.384185791015625e-06 C 16.74541664123535 2.384185791015625e-06 17.53027725219727 0.8988425731658936 17.53027725219727 2.007622480392456 C 17.53027725219727 3.116402626037598 16.74541664123535 4.015242576599121 15.77724647521973 4.015242576599121 L 1.753026962280273 4.015242576599121 C 0.7848567962646484 4.015242576599121 -3.814697265625e-06 3.116402626037598 -3.814697265625e-06 2.007622480392456 C -3.814697265625e-06 0.8988425731658936 0.7848567962646484 2.384185791015625e-06 1.753026962280273 2.384185791015625e-06 Z" stroke="none" fill="#fff"/>
    </g>
    <g id="Rectangle_784" data-name="Rectangle 784" transform="translate(29.5 45.076)" stroke="#fff" stroke-width="0.4">
      <rect width="31" height="4" rx="2" stroke="none"/>
      <rect x="0.2" y="0.2" width="30.6" height="3.6" rx="1.8" fill="none"/>
    </g>
  </g>
</svg>
