<svg xmlns="http://www.w3.org/2000/svg" width="50" height="50" viewBox="0 0 50 50">
  <g id="Group_1395" data-name="Group 1395" transform="translate(-2868 6656)">
    <path id="Path_652" data-name="Path 652" d="M0,0H50V50H0Z" transform="translate(2868 -6656)" fill="none"/>
    <g id="Group_1122" data-name="Group 1122" transform="translate(2362.384 -7602.522)">
      <g id="heart" transform="translate(514.616 957.522)">
        <path id="Path_137" data-name="Path 137" d="M100.473,7.5a10.775,10.775,0,0,1,6.315,2.06A10.775,10.775,0,0,1,113.1,7.5c5.311,0,9.473,4.624,9.473,10.526,0,3.78-1.862,11.084-14.337,17.538a3.145,3.145,0,0,1-2.9,0C92.862,29.11,91,21.806,91,18.026c0-5.9,4.161-10.526,9.473-10.526Z" transform="translate(-91 -7.5)" fill="none" stroke="#000" stroke-width="2.7"/>
      </g>
    </g>
  </g>
</svg>
