<svg xmlns="http://www.w3.org/2000/svg" width="50" height="50" viewBox="0 0 50 50">
  <g id="Group_1396" data-name="Group 1396" transform="translate(-3005 6659)">
    <rect id="Rectangle_846" data-name="Rectangle 846" width="50" height="50" transform="translate(3005 -6659)" fill="none"/>
    <g id="Group_482" data-name="Group 482" transform="translate(2363.161 -7606.793)">
      <g id="person" transform="translate(649.839 955.794)">
        <path id="Path_117" data-name="Path 117" d="M17.08,34.161a17.079,17.079,0,1,1,13.06-6.072,17.259,17.259,0,0,1-2.016,2.021A17.086,17.086,0,0,1,17.08,34.161Zm0-32.026A14.946,14.946,0,0,0,5.652,26.712a15.121,15.121,0,0,0,1.765,1.769,14.947,14.947,0,0,0,19.327,0,15.121,15.121,0,0,0,1.765-1.77A14.946,14.946,0,0,0,17.08,2.135Z" transform="translate(0 0)"/>
        <path id="Path_118" data-name="Path 118" d="M166.405,76.81a6.405,6.405,0,1,1,6.405-6.405A6.412,6.412,0,0,1,166.405,76.81Zm0-10.675a4.27,4.27,0,1,0,4.27,4.27A4.275,4.275,0,0,0,166.405,66.135Z" transform="translate(-149.325 -59.73)"/>
        <path id="Path_119" data-name="Path 119" d="M102.1,239.418a1.069,1.069,0,0,1-1.036-1.328,9.617,9.617,0,0,0-9.178-11.955H91.6a9.617,9.617,0,0,0-9.178,11.955,1.068,1.068,0,0,1-2.071.52A11.746,11.746,0,0,1,91.576,224h.333a11.752,11.752,0,0,1,11.223,14.609A1.068,1.068,0,0,1,102.1,239.418Z" transform="translate(-74.663 -209.055)"/>
      </g>
    </g>
  </g>
</svg>
