<svg xmlns="http://www.w3.org/2000/svg" width="50" height="50" viewBox="0 0 50 50">
  <g id="Group_1394" data-name="Group 1394" transform="translate(-2734 6661)">
    <path id="Path_651" data-name="Path 651" d="M0,0H50V50H0Z" transform="translate(2734 -6661)" fill="none"/>
    <g id="Group_731" data-name="Group 731" transform="translate(2363 -7604)">
      <g id="settings" transform="translate(379.012 952.487)">
        <path id="Path_120" data-name="Path 120" d="M141.775,133.609a8.166,8.166,0,1,0,8.166,8.166A8.175,8.175,0,0,0,141.775,133.609Zm0,14.29a6.124,6.124,0,1,1,6.124-6.124A6.132,6.132,0,0,1,141.775,147.9Zm0,0" transform="translate(-124.695 -124.695)"/>
        <path id="Path_121" data-name="Path 121" d="M33.357,13.191l-2.626-.571a14.289,14.289,0,0,0-.845-2.038L31.34,8.322A1.021,1.021,0,0,0,31.2,7.048l-4.09-4.09a1.021,1.021,0,0,0-1.274-.137L23.578,4.274a14.289,14.289,0,0,0-2.038-.845L20.97.8a1.021,1.021,0,0,0-1-.8H14.188a1.021,1.021,0,0,0-1,.8L12.62,3.429a14.289,14.289,0,0,0-2.038.845L8.322,2.821a1.021,1.021,0,0,0-1.274.137l-4.09,4.09a1.021,1.021,0,0,0-.137,1.274l1.454,2.261a14.289,14.289,0,0,0-.845,2.038L.8,13.191a1.021,1.021,0,0,0-.8,1v5.784a1.021,1.021,0,0,0,.8,1l2.626.571a14.289,14.289,0,0,0,.845,2.038L2.821,25.839a1.021,1.021,0,0,0,.137,1.274l4.09,4.09a1.021,1.021,0,0,0,1.274.137l2.261-1.454a14.289,14.289,0,0,0,2.038.845l.571,2.626a1.021,1.021,0,0,0,1,.8h5.784a1.021,1.021,0,0,0,1-.8l.571-2.626a14.289,14.289,0,0,0,2.038-.845l2.261,1.454a1.021,1.021,0,0,0,1.274-.137l4.09-4.09a1.021,1.021,0,0,0,.137-1.274l-1.454-2.261a14.289,14.289,0,0,0,.845-2.038l2.626-.571a1.021,1.021,0,0,0,.8-1V14.188A1.021,1.021,0,0,0,33.357,13.191ZM32.119,19.15l-2.407.523a1.021,1.021,0,0,0-.767.723,12.247,12.247,0,0,1-1.131,2.727,1.02,1.02,0,0,0,.03,1.054l1.333,2.074-2.927,2.927-2.074-1.333a1.02,1.02,0,0,0-1.053-.03A12.254,12.254,0,0,1,20.4,28.946a1.021,1.021,0,0,0-.723.767l-.523,2.407H15.011l-.523-2.407a1.021,1.021,0,0,0-.723-.767,12.247,12.247,0,0,1-2.727-1.131,1.021,1.021,0,0,0-1.054.03L7.91,29.178,4.983,26.251l1.333-2.074a1.02,1.02,0,0,0,.03-1.054A12.261,12.261,0,0,1,5.215,20.4a1.021,1.021,0,0,0-.766-.723L2.041,19.15V15.011l2.407-.523a1.021,1.021,0,0,0,.767-.723,12.247,12.247,0,0,1,1.131-2.727,1.02,1.02,0,0,0-.03-1.054L4.983,7.91,7.91,4.983,9.983,6.316a1.02,1.02,0,0,0,1.053.03,12.255,12.255,0,0,1,2.728-1.131,1.021,1.021,0,0,0,.723-.767l.523-2.407H19.15l.523,2.407a1.021,1.021,0,0,0,.723.767,12.247,12.247,0,0,1,2.727,1.131,1.021,1.021,0,0,0,1.054-.03l2.074-1.333L29.178,7.91,27.845,9.983a1.02,1.02,0,0,0-.03,1.054,12.248,12.248,0,0,1,1.131,2.727,1.021,1.021,0,0,0,.766.723l2.408.523Zm0,0" transform="translate(0)"/>
      </g>
    </g>
  </g>
</svg>
