<svg xmlns="http://www.w3.org/2000/svg" xmlns:xlink="http://www.w3.org/1999/xlink" width="119" height="119" viewBox="0 0 119 119">
  <defs>
    <linearGradient id="linear-gradient" x1="0.3" y1="0.235" x2="1" y2="1.122" gradientUnits="objectBoundingBox">
      <stop offset="0" stop-color="#f2f2f2"/>
      <stop offset="1" stop-color="#ccc"/>
    </linearGradient>
  </defs>
  <g id="Group_1401" data-name="Group 1401" transform="translate(-601 -329)">
    <rect id="Rectangle_82" data-name="Rectangle 82" width="119" height="119" rx="5" transform="translate(601 329)" fill="url(#linear-gradient)"/>
    <g id="pants" transform="translate(644.955 361.722)">
      <g id="Group_7" data-name="Group 7" transform="translate(0)">
        <g id="Group_6" data-name="Group 6" transform="translate(0)">
          <path id="Path_1" data-name="Path 1" d="M130.6,45.386,128.246.742A.784.784,0,0,0,127.464,0h-21.93a.783.783,0,0,0-.782.743L102.4,45.386a.784.784,0,0,0,.7.821l7.832.783a.788.788,0,0,0,.851-.653l4.71-28.931,4.71,28.93a.785.785,0,0,0,.772.657c.026,0,.052,0,.079,0l7.832-.783A.784.784,0,0,0,130.6,45.386Zm-7.96-.028-5.364-32.952a.783.783,0,0,0-1.546,0l-5.364,32.952-6.356-.636,2.271-43.156h20.444l2.271,43.155Z" transform="translate(-102.401)" stroke="#000" stroke-width="1"/>
        </g>
      </g>
      <g id="Group_9" data-name="Group 9" transform="translate(3.132 3.133)">
        <g id="Group_8" data-name="Group 8" transform="translate(0)">
          <rect id="Rectangle_5" data-name="Rectangle 5" width="21.93" height="1.566" stroke="#000" stroke-width="1"/>
        </g>
      </g>
      <g id="Group_11" data-name="Group 11" transform="translate(10.181 0.783)">
        <g id="Group_10" data-name="Group 10">
          <path id="Path_2" data-name="Path 2" d="M216.462,8.533V18.8a4.862,4.862,0,0,1-1.566-3.586V8.533h-1.566v6.681a6.418,6.418,0,0,0,3.566,5.768.783.783,0,0,0,1.133-.7V8.533h-1.566Z" transform="translate(-213.329 -8.533)" stroke="#000" stroke-width="1"/>
        </g>
      </g>
      <g id="Group_13" data-name="Group 13" transform="translate(2.349 3.765)">
        <g id="Group_12" data-name="Group 12">
          <path id="Path_3" data-name="Path 3" d="M131.927,41.02l-.094.475a6.356,6.356,0,0,1-3.245,4.376H128v1.566h.783a.788.788,0,0,0,.351-.082,7.916,7.916,0,0,0,4.24-5.554l.094-.478Z" transform="translate(-127.996 -41.02)" stroke="#000" stroke-width="1"/>
        </g>
      </g>
      <g id="Group_15" data-name="Group 15" transform="translate(20.378 3.764)">
        <g id="Group_14" data-name="Group 14">
          <path id="Path_4" data-name="Path 4" d="M329.3,45.862a6.351,6.351,0,0,1-3.245-4.373l-.094-.478-1.538.3.095.481a7.919,7.919,0,0,0,4.239,5.551.781.781,0,0,0,.351.083h.783V45.862Z" transform="translate(-324.424 -41.011)" stroke="#000" stroke-width="1"/>
        </g>
      </g>
    </g>
  </g>
</svg>
