<svg xmlns="http://www.w3.org/2000/svg" width="50" height="50" viewBox="0 0 50 50">
  <g id="Group_1393" data-name="Group 1393" transform="translate(-2602 6655)">
    <rect id="Rectangle_845" data-name="Rectangle 845" width="50" height="50" transform="translate(2602 -6655)" fill="none"/>
    <g id="Group_1110" data-name="Group 1110" transform="translate(2365.861 -7599.737)">
      <g id="search" transform="translate(245.139 953.737)">
        <g id="Group_349" data-name="Group 349">
          <g id="Group_348" data-name="Group 348">
            <path id="Path_124" data-name="Path 124" d="M13.967,0A13.967,13.967,0,1,0,27.935,13.967,13.984,13.984,0,0,0,13.967,0Zm0,25.356A11.389,11.389,0,1,1,25.356,13.967,11.4,11.4,0,0,1,13.967,25.356Z"/>
          </g>
        </g>
        <g id="Group_351" data-name="Group 351" transform="translate(21.746 21.746)">
          <g id="Group_350" data-name="Group 350">
            <path id="Path_125" data-name="Path 125" d="M360.639,358.815l-7.392-7.392a1.289,1.289,0,1,0-1.823,1.823l7.392,7.392a1.289,1.289,0,1,0,1.823-1.823Z" transform="translate(-351.046 -351.046)"/>
          </g>
        </g>
      </g>
    </g>
  </g>
</svg>
