<svg xmlns="http://www.w3.org/2000/svg" xmlns:xlink="http://www.w3.org/1999/xlink" width="119" height="119" viewBox="0 0 119 119">
  <defs>
    <linearGradient id="linear-gradient" x1="0.3" y1="0.235" x2="1" y2="1.122" gradientUnits="objectBoundingBox">
      <stop offset="0" stop-color="#f2f2f2"/>
      <stop offset="1" stop-color="#ccc"/>
    </linearGradient>
  </defs>
  <g id="Group_1399" data-name="Group 1399" transform="translate(-333 -329)">
    <rect id="Rectangle_78" data-name="Rectangle 78" width="119" height="119" rx="5" transform="translate(333 329)" fill="url(#linear-gradient)"/>
    <g id="clothes" transform="translate(364.702 366.754)">
      <path id="Path_7" data-name="Path 7" d="M.968,48.116,7.7,50.567a1.472,1.472,0,0,0,1.9-.909l2.268-6.672V61.609a1.471,1.471,0,0,0,1.471,1.471H36.876a1.471,1.471,0,0,0,1.471-1.471V42.983l2.268,6.675c.816,2.4,3.992-.253,8.631-1.542a1.471,1.471,0,0,0,.89-1.855L41.215,19.954a1.582,1.582,0,0,0-.931-.932L31.457,16.08A1.572,1.572,0,0,0,30.992,16H19.223a1.532,1.532,0,0,0-.454.072l-.011,0L9.931,19.022a1.483,1.483,0,0,0-.923.911l0,.012L.078,46.261a1.471,1.471,0,0,0,.89,1.855Zm34.437-9.553c-.653-.856-1.544-1.963-2.942-1.963-1.931,0-2.884,2.1-3.678,2.857-.793-.761-1.748-2.857-3.678-2.857s-2.884,2.1-3.678,2.857c-.793-.761-1.748-2.857-3.678-2.857-1.4,0-2.289,1.107-2.942,1.963V35.129a1.47,1.47,0,0,0-.029-.289l-.245-1.225c1.629-.3,2.484-2.113,3.216-2.815.793.761,1.748,2.857,3.678,2.857s2.884-2.1,3.678-2.857c.793.761,1.748,2.857,3.678,2.857s2.884-2.1,3.678-2.857c.7.67,1.486,2.309,2.942,2.749ZM14.81,60.138V42.376c1.455-.44,2.251-2.085,2.942-2.749.793.761,1.748,2.857,3.678,2.857s2.884-2.1,3.678-2.857c.793.761,1.748,2.857,3.678,2.857s2.884-2.1,3.678-2.857c.7.668,1.487,2.309,2.942,2.749V60.138H14.81Zm28.109-12.85-4.57-13.449V32.368l1.685-6.739,6.856,20.215ZM29.268,18.946a4.413,4.413,0,0,1-8.321,0Zm-11.251.482a7.354,7.354,0,0,0,14.181,0l5.863,1.954-2.226,8.906c-.751-.919-1.684-2.515-3.372-2.515-1.931,0-2.884,2.1-3.678,2.857-.793-.761-1.748-2.857-3.678-2.857s-2.884,2.1-3.678,2.857c-.793-.761-1.748-2.857-3.678-2.857-1.994,0-2.963,2.253-3.733,2.907l-.077-.038L12.093,21.4Zm-7.988,6.654,1.659,8.294L7.3,47.288l-3.97-1.445Z" transform="translate(0 -16.004)"/>
    </g>
  </g>
</svg>
